<svg xmlns="http://www.w3.org/2000/svg" width="188.7" height="26.3" viewBox="0 0 188.7 26.3">
  <g id="Group_4" transform="translate(-27.4 -34)">
    <g id="Group_174" data-name="Group 174">
      <path id="Path_96" data-name="Path 96" d="M76.3,56.3a.215.215,0,0,0-.2-.2H71.4a.215.215,0,0,0-.2.2l-.6,3.4a.43.43,0,0,1-.4.4H67.3c-.3,0-.4-.1-.4-.4L71.7,38a.43.43,0,0,1,.4-.4h3.4a.366.366,0,0,1,.4.4l4.7,21.6v.1c0,.2-.1.3-.4.3h-3c-.3,0-.4-.1-.4-.4Zm-.8-3.1a.215.215,0,0,0,.2-.2L73.8,42.9a.1.1,0,1,0-.2,0L71.8,53c0,.1,0,.2.2.2Z" fill="#fff"/>
      <path id="Path_97" data-name="Path 97" d="M96.3,37.6a.354.354,0,0,1,.4.4V59.6a.354.354,0,0,1-.4.4H93.4a.354.354,0,0,1-.4-.4V44.5c0-.1,0-.1-.1-.1s-.1,0-.1.1l-2.8,5q-.15.3-.3.3t-.3-.3l-2.8-5.1a.1.1,0,1,0-.2,0V59.5a.367.367,0,0,1-.1.3c-.1.2-.1.2-.2.2H83.2a.354.354,0,0,1-.4-.4V38a.354.354,0,0,1,.4-.4h2.9a.55.55,0,0,1,.5.3l3.1,5.5c.1.1.1.1.2,0l3-5.5a.55.55,0,0,1,.5-.3h2.9Z" fill="#fff"/>
      <path id="Path_98" data-name="Path 98" d="M100,59.6V38a.354.354,0,0,1,.4-.4h2.9a.354.354,0,0,1,.4.4V59.6a.354.354,0,0,1-.4.4h-2.9a.367.367,0,0,1-.3-.1C100.1,59.8,100,59.7,100,59.6Z" fill="#fff"/>
      <path id="Path_99" data-name="Path 99" d="M116.7,37.6h2.9a.354.354,0,0,1,.4.4V59.6a.354.354,0,0,1-.4.4h-3.4c-.2,0-.4-.1-.4-.3L111,46.1a.1.1,0,0,0-.2,0V59.6a.354.354,0,0,1-.4.4h-2.9a.354.354,0,0,1-.4-.4V38a.354.354,0,0,1,.4-.4h3.3c.2,0,.4.1.4.3L116,51.4a.1.1,0,0,0,.1.1c.1,0,.1,0,.1-.1V38a.367.367,0,0,1,.1-.3A.756.756,0,0,1,116.7,37.6Z" fill="#fff"/>
      <path id="Path_100" data-name="Path 100" d="M123.4,59.6V38a.354.354,0,0,1,.4-.4h5.5a6.032,6.032,0,0,1,4.4,1.7,5.968,5.968,0,0,1,1.6,4.4V53.9a5.816,5.816,0,0,1-1.6,4.4,6.033,6.033,0,0,1-4.4,1.7h-5.5a.367.367,0,0,1-.3-.1C123.5,59.8,123.4,59.7,123.4,59.6Zm5.8-2.8a2.136,2.136,0,0,0,1.7-.8,3.928,3.928,0,0,0,.7-2.3V44a3.334,3.334,0,0,0-.7-2.3,2.055,2.055,0,0,0-1.8-.8h-1.9a.215.215,0,0,0-.2.2V56.8a.215.215,0,0,0,.2.2Z" fill="#fff"/>
      <path id="Path_101" data-name="Path 101" d="M138.5,59.6V38a.354.354,0,0,1,.4-.4h2.9a.354.354,0,0,1,.4.4V59.6a.354.354,0,0,1-.4.4h-2.9a.367.367,0,0,1-.3-.1C138.6,59.8,138.5,59.7,138.5,59.6Z" fill="#fff"/>
      <path id="Path_102" data-name="Path 102" d="M144.8,51.6V49.2a.354.354,0,0,1,.4-.4h7.9a.354.354,0,0,1,.4.4v2.4a.354.354,0,0,1-.4.4h-7.9a.367.367,0,0,1-.3-.1C144.9,51.8,144.8,51.7,144.8,51.6Z" fill="#fff"/>
      <path id="Path_103" data-name="Path 103" d="M155.7,54.5V43.1a5.359,5.359,0,0,1,1.6-4.2,6.4,6.4,0,0,1,4.4-1.6,5.968,5.968,0,0,1,4.4,1.6,5.728,5.728,0,0,1,1.7,4.2v1.2a.354.354,0,0,1-.4.4h-2.9a.354.354,0,0,1-.4-.4V43a2.489,2.489,0,0,0-.7-1.9,2.414,2.414,0,0,0-3.4,0,2.883,2.883,0,0,0-.6,1.9V54.4a2.883,2.883,0,0,0,.6,1.9,2.414,2.414,0,0,0,3.4,0,2.935,2.935,0,0,0,.7-1.9V51.3a.215.215,0,0,0-.2-.2h-2a.354.354,0,0,1-.4-.4V48.4a.354.354,0,0,1,.4-.4h5.4a.354.354,0,0,1,.4.4v5.9a5.57,5.57,0,0,1-1.7,4.2,6.4,6.4,0,0,1-4.4,1.6,5.968,5.968,0,0,1-4.4-1.6A5.132,5.132,0,0,1,155.7,54.5Z" fill="#fff"/>
      <path id="Path_104" data-name="Path 104" d="M181.7,40.8h-6.9a.215.215,0,0,0-.2.2v6a.215.215,0,0,0,.2.2h4.1a.354.354,0,0,1,.4.4V50a.354.354,0,0,1-.4.4h-4.1a.215.215,0,0,0-.2.2v6.1a.215.215,0,0,0,.2.2h6.9a.354.354,0,0,1,.4.4v2.4a.354.354,0,0,1-.4.4H171.3a.354.354,0,0,1-.4-.4V38a.354.354,0,0,1,.4-.4h10.4a.354.354,0,0,1,.4.4v2.4a.354.354,0,0,1-.4.4Z" fill="#fff"/>
    </g>
    <g id="Group_175" data-name="Group 175">
      <path id="Path_105" data-name="Path 105" d="M185.1,58.3a1.414,1.414,0,1,1,.4,1.2A1.922,1.922,0,0,1,185.1,58.3Z" fill="#fff"/>
      <path id="Path_106" data-name="Path 106" d="M191.5,55.1V42.5a5.384,5.384,0,0,1,1.4-3.8,4.839,4.839,0,0,1,3.8-1.4,5.384,5.384,0,0,1,3.8,1.4,4.839,4.839,0,0,1,1.4,3.8v1.4a.265.265,0,0,1-.3.3h-1.1a.265.265,0,0,1-.3-.3V42.5a3.62,3.62,0,0,0-1-2.7,3.253,3.253,0,0,0-2.6-1,3.392,3.392,0,0,0-2.6,1,3.875,3.875,0,0,0-1,2.7V55.1a3.62,3.62,0,0,0,1,2.7,3.253,3.253,0,0,0,2.6,1,3.392,3.392,0,0,0,2.6-1,3.875,3.875,0,0,0,1-2.7V50.6c0-.1,0-.1-.1-.1h-3a.265.265,0,0,1-.3-.3v-.9a.265.265,0,0,1,.3-.3h4.5a.265.265,0,0,1,.3.3v5.8a5.384,5.384,0,0,1-1.4,3.8,4.839,4.839,0,0,1-3.8,1.4,5.384,5.384,0,0,1-3.8-1.4A4.979,4.979,0,0,1,191.5,55.1Z" fill="#fff"/>
      <path id="Path_107" data-name="Path 107" d="M208.2,39.1c-.1,0-.1,0-.1.1v8.7c0,.1,0,.1.1.1h4.9a.265.265,0,0,1,.3.3v.9a.265.265,0,0,1-.3.3h-4.9c-.1,0-.1,0-.1.1v8.7c0,.1,0,.1.1.1h7.6a.265.265,0,0,1,.3.3v.9a.265.265,0,0,1-.3.3h-9.1a.265.265,0,0,1-.3-.3V37.9a.265.265,0,0,1,.3-.3h9.1a.265.265,0,0,1,.3.3v.9a.265.265,0,0,1-.3.3h-7.6Z" fill="#fff"/>
    </g>
    <g id="cloudy" transform="translate(27 34)">
      <path id="Path_1" d="M4.2,8.1A5.216,5.216,0,0,1,14.3,6.6a3.564,3.564,0,0,1,3.5,3.6,3.612,3.612,0,0,1-3.5,3.5H4.3a2.8,2.8,0,0,1-2.8-2.8A2.843,2.843,0,0,1,4.2,8.1Z" fill="#fff"/>
      <path id="Path_2" d="M17.8,10.1a3.563,3.563,0,0,1-2,3.2,3.512,3.512,0,0,0-1.7-4.7,4.013,4.013,0,0,0-1.5-.3A5.225,5.225,0,0,0,5.9,5.2a4.053,4.053,0,0,0-.9.5A5.2,5.2,0,0,1,12.2,4a4.914,4.914,0,0,1,2.1,2.6A3.478,3.478,0,0,1,17.8,10.1Z" fill="#f2f2f2"/>
      <path id="Path_3" d="M28.5,14.4a5.9,5.9,0,0,0-6.2-5.5,5.709,5.709,0,0,0-5.1,3.8,4,4,0,0,0,0,8H28.4a3.152,3.152,0,0,0,.1-6.3Z" fill="#fff"/>
      <path id="Path_4" d="M31.5,17.5a3.116,3.116,0,0,1-3.1,3.1h-.2a3.131,3.131,0,0,0-1.3-4.2,6.468,6.468,0,0,0-1.3-.4,5.9,5.9,0,0,0-6.2-5.5c-.3,0-.6.1-.9.1a5.951,5.951,0,0,1,8.3-.2,5.713,5.713,0,0,1,1.8,3.9A3.246,3.246,0,0,1,31.5,17.5Z" fill="#f2f2f2"/>
      <path id="Path_5" d="M26.3,11.2a7,7,0,1,1-7-7,6.957,6.957,0,0,1,7,7Z" fill="#f6cb43"/>
      <path id="Path_6" d="M19.3,18.2a6.957,6.957,0,0,1-7-7,7.054,7.054,0,0,1,5.6-6.9,7.047,7.047,0,0,0,5.5,8.3,6.608,6.608,0,0,0,2.8,0,6.973,6.973,0,0,1-6.9,5.6Z" fill="#fab03c"/>
      <g id="Group_3" transform="translate(13.132)">
        <path id="Path_7" d="M17.4,11.9H15.9c-.3,0-.4-.2-.4-.5a.43.43,0,0,1,.4-.4h1.5c.3,0,.4.2.4.5A.43.43,0,0,1,17.4,11.9Z" fill="#f8e98e"/>
        <path id="Path_8" d="M14.6,7.1a.472.472,0,0,1-.5-.5.52.52,0,0,1,.2-.4l1.3-.8a.4.4,0,0,1,.6.2.4.4,0,0,1-.2.6h0L14.7,7C14.8,7.1,14.7,7.1,14.6,7.1Z" fill="#f8e98e"/>
        <path id="Path_9" d="M11.2,3.7a.472.472,0,0,1-.5-.5c0-.1,0-.2.1-.2l.8-1.3a.481.481,0,0,1,.6-.2.481.481,0,0,1,.2.6l-.8,1.3A.536.536,0,0,1,11.2,3.7Z" fill="#f8e98e"/>
        <path id="Path_10" d="M6.4,2.4A.43.43,0,0,1,6,2H6V.5A.458.458,0,0,1,6.4,0a.472.472,0,0,1,.5.5V2A.458.458,0,0,1,6.4,2.4Z" fill="#f8e98e"/>
        <path id="Path_11" d="M1.7,3.7a.52.52,0,0,1-.4-.2L.6,2.2a.481.481,0,0,1,.2-.6.481.481,0,0,1,.6.2L2.1,3a.4.4,0,0,1-.2.6c0,.1-.1.1-.2.1Z" fill="#f8e98e"/>
      </g>
      <path id="Path_12" d="M15.8,14.4A5.9,5.9,0,0,0,4.4,12.7a4,4,0,0,0,0,8H15.6a3.116,3.116,0,0,0,3.1-3.1,2.975,2.975,0,0,0-2.9-3.2Z" fill="#fff"/>
      <path id="Path_13" d="M19.1,17.5A3.116,3.116,0,0,1,16,20.6h-.2a3.131,3.131,0,0,0-1.3-4.2,6.468,6.468,0,0,0-1.3-.4A5.9,5.9,0,0,0,7,10.5c-.3,0-.6.1-.9.1a5.951,5.951,0,0,1,8.3-.2,5.713,5.713,0,0,1,1.8,3.9A3.331,3.331,0,0,1,19.1,17.5Z" fill="#f2f2f2"/>
      <path id="Path_14" d="M26,19.8a5.9,5.9,0,0,0-6.2-5.5,5.709,5.709,0,0,0-5.1,3.8,4,4,0,0,0,0,8H25.9A3.116,3.116,0,0,0,29,23a3.057,3.057,0,0,0-3-3.2Z" fill="#fff"/>
      <path id="Path_15" d="M29,22.9A3.116,3.116,0,0,1,25.9,26h-.2a3.131,3.131,0,0,0-1.3-4.2,6.468,6.468,0,0,0-1.3-.4,5.9,5.9,0,0,0-6.2-5.5c-.3,0-.6.1-.9.1a5.951,5.951,0,0,1,8.3-.2,5.713,5.713,0,0,1,1.8,3.9A3.174,3.174,0,0,1,29,22.9Z" fill="#f2f2f2"/>
      <path id="Path_16" d="M24.5,20.2a.366.366,0,0,1-.4-.4c-.1-.2-.1-.4-.2-.6a.447.447,0,0,1,.8-.4h0c.1.3.2.5.3.8.1.2-.1.5-.3.6h-.2Z" fill="#fff"/>
      <path id="Path_17" d="M23.4,18.1c-.1,0-.2-.1-.3-.2A4.064,4.064,0,0,0,20.6,16a.474.474,0,0,1,.3-.9A5.154,5.154,0,0,1,24,17.4a.4.4,0,0,1-.2.6.6.6,0,0,1-.4.1Z" fill="#fff"/>
      <path id="Path_18" d="M5.2,21.5a4.117,4.117,0,0,1,4.5-3.9,4.264,4.264,0,0,1,3.7,2.7,2.818,2.818,0,0,1,2.8,2.9A2.862,2.862,0,0,1,13.4,26h-8A2.27,2.27,0,0,1,3,23.8a2.3,2.3,0,0,1,2.2-2.3Z" fill="#fff"/>
      <path id="Path_19" d="M16.3,23.2A2.734,2.734,0,0,1,13.5,26a2.75,2.75,0,0,0-.2-4,2.64,2.64,0,0,0-1.9-.7,4.19,4.19,0,0,0-4.6-2.7,4.159,4.159,0,0,1,5.9.6,7.458,7.458,0,0,1,.7,1.2A2.7,2.7,0,0,1,16.3,23.2Z" fill="#f2f2f2"/>
    </g>
  </g>
</svg>
