<svg xmlns="http://www.w3.org/2000/svg" xmlns:xlink="http://www.w3.org/1999/xlink" width="67.049" height="45.141" viewBox="0 0 67.049 45.141">
  <defs>
    <linearGradient id="linear-gradient" x1="0.149" y1="0.851" x2="0.692" y2="0.307" gradientUnits="objectBoundingBox">
      <stop offset="0" stop-color="#00aeef"/>
      <stop offset="1" stop-color="#00bdf2"/>
    </linearGradient>
    <linearGradient id="linear-gradient-2" y1="0.501" x2="1.006" y2="0.501" gradientUnits="objectBoundingBox">
      <stop offset="0" stop-color="#d0e8f8"/>
      <stop offset="1" stop-color="#e1eef9"/>
    </linearGradient>
    <linearGradient id="linear-gradient-3" x1="0.243" y1="0.757" x2="0.757" y2="0.243" gradientUnits="objectBoundingBox">
      <stop offset="0" stop-color="#fdb728"/>
      <stop offset="1" stop-color="#ffcd23"/>
    </linearGradient>
    <linearGradient id="linear-gradient-4" x1="0.241" y1="0.756" x2="0.75" y2="0.243" xlink:href="#linear-gradient-3"/>
  </defs>
  <g id="Party_Cloudy_Night" data-name="Party Cloudy Night" transform="translate(-1033.92 -207.329)">
    <path id="Path_58" data-name="Path 58" d="M1086.86,236a14.6,14.6,0,0,1-4-28.64.76.76,0,0,1,.75.19.79.79,0,0,1,.2.76A13.07,13.07,0,0,0,1100,224.5a.76.76,0,0,1,.94.94A14.65,14.65,0,0,1,1086.86,236Z" fill="url(#linear-gradient)"/>
    <path id="Path_59" data-name="Path 59" d="M1079.93,252.46a10.67,10.67,0,0,0,0-21.33h-.11a17,17,0,0,0-32.45-5.06h-.25a13.2,13.2,0,0,0,0,26.4" fill="url(#linear-gradient-2)"/>
    <path id="Path_60" data-name="Path 60" d="M1094.14,252.46a6.7,6.7,0,0,0,0-13.4h-.06a10.69,10.69,0,0,0-20.38-3.19h-.15a8.29,8.29,0,1,0,0,16.58" fill="#fff"/>
    <path id="Path_61" data-name="Path 61" d="M1096.35,215.66c-.27,1-.72,1-1,0a3.68,3.68,0,0,0-2.32-2.33c-1-.27-1-.72,0-1a3.67,3.67,0,0,0,2.32-2.32c.27-1,.72-1,1,0a3.679,3.679,0,0,0,2.33,2.32c1,.27,1,.72,0,1a3.7,3.7,0,0,0-2.33,2.33Z" fill="url(#linear-gradient-3)"/>
    <path id="Path_62" data-name="Path 62" d="M1041.07,218.64c-.22.82-.58.82-.81,0a3,3,0,0,0-1.88-1.88c-.81-.22-.81-.58,0-.81a2.94,2.94,0,0,0,1.88-1.88c.23-.81.59-.81.81,0A3,3,0,0,0,1043,216c.81.23.81.59,0,.81A3,3,0,0,0,1041.07,218.64Z" fill="url(#linear-gradient-4)"/>
  </g>
</svg>
