<svg xmlns="http://www.w3.org/2000/svg" xmlns:xlink="http://www.w3.org/1999/xlink" width="66.92" height="65.157" viewBox="0 0 66.92 65.157">
  <defs>
    <linearGradient id="linear-gradient" x1="0.207" y1="1.111" x2="0.775" y2="0.225" gradientUnits="objectBoundingBox">
      <stop offset="0" stop-color="#d0e8f8"/>
      <stop offset="1" stop-color="#e1eef9"/>
    </linearGradient>
    <linearGradient id="linear-gradient-2" x1="0.004" y1="0.5" x2="1.003" y2="0.5" gradientUnits="objectBoundingBox">
      <stop offset="0" stop-color="#00aeef"/>
      <stop offset="1" stop-color="#00bdf2"/>
    </linearGradient>
    <linearGradient id="linear-gradient-3" x1="0.001" y1="0.5" x2="1.001" y2="0.5" xlink:href="#linear-gradient-2"/>
    <linearGradient id="linear-gradient-4" x1="-0.004" y1="0.5" x2="0.995" y2="0.5" xlink:href="#linear-gradient-2"/>
    <linearGradient id="linear-gradient-5" x1="0.001" y1="0.5" x2="1.001" y2="0.5" xlink:href="#linear-gradient-2"/>
  </defs>
  <g id="Heavy_Rain_Night" data-name="Heavy Rain Night" transform="translate(-579.22 -679.423)">
    <path id="Path_82" data-name="Path 82" d="M625.22,715.92a10.67,10.67,0,1,0,0-21.33h-.11a17,17,0,0,0-32.44-5.06h-.25a13.2,13.2,0,1,0,0,26.4" fill="url(#linear-gradient)"/>
    <path id="Path_83" data-name="Path 83" d="M639.44,715.92a6.7,6.7,0,1,0,0-13.4h-.07A10.69,10.69,0,0,0,619,699.35h-.16a8.29,8.29,0,0,0,0,16.58" fill="#fff"/>
    <path id="Path_84" data-name="Path 84" d="M586,738.52a2.008,2.008,0,0,1-1.74-3l6.5-11.26a2,2,0,1,1,3.47,2l-6.5,11.26A2,2,0,0,1,586,738.52Z" fill="url(#linear-gradient-2)"/>
    <path id="Path_85" data-name="Path 85" d="M593.17,744.58a2,2,0,0,1-1.74-3l10-17.32a2,2,0,1,1,3.47,2l-10,17.32A2,2,0,0,1,593.17,744.58Z" fill="url(#linear-gradient-3)"/>
    <path id="Path_86" data-name="Path 86" d="M618,737.66a2,2,0,0,1-1.73-3l6-10.4a2,2,0,1,1,3.47,2l-6,10.4A2,2,0,0,1,618,737.66Z" fill="url(#linear-gradient-4)"/>
    <path id="Path_87" data-name="Path 87" d="M606.06,741.12a2.008,2.008,0,0,1-1.74-3l8-13.86a2,2,0,1,1,3.47,2l-8,13.86A2,2,0,0,1,606.06,741.12Z" fill="url(#linear-gradient-5)"/>
  </g>
</svg>
