<svg xmlns="http://www.w3.org/2000/svg" xmlns:xlink="http://www.w3.org/1999/xlink" width="67.208" height="63.317" viewBox="0 0 67.208 63.317">
  <defs>
    <linearGradient id="linear-gradient" y1="0.5" x2="1" y2="0.5" gradientUnits="objectBoundingBox">
      <stop offset="0" stop-color="#00aeef"/>
      <stop offset="1" stop-color="#00bdf2"/>
    </linearGradient>
    <linearGradient id="linear-gradient-2" x1="0" y1="0.504" x2="0.994" y2="0.504" xlink:href="#linear-gradient"/>
    <linearGradient id="linear-gradient-3" x1="-0.002" y1="0.504" x2="0.992" y2="0.504" xlink:href="#linear-gradient"/>
    <linearGradient id="linear-gradient-7" x1="0.147" y1="0.854" x2="0.854" y2="0.147" gradientUnits="objectBoundingBox">
      <stop offset="0" stop-color="#fdb728"/>
      <stop offset="1" stop-color="#ffcd23"/>
    </linearGradient>
    <linearGradient id="linear-gradient-8" x1="0.207" y1="1.111" x2="0.774" y2="0.223" gradientUnits="objectBoundingBox">
      <stop offset="0" stop-color="#d0e8f8"/>
      <stop offset="1" stop-color="#e1eef9"/>
    </linearGradient>
  </defs>
  <g id="Drizzle" transform="translate(-275.243 -212.573)">
    <path id="Path_129" data-name="Path 129" d="M285.77,268.71a2,2,0,0,1-1.73-3l2.88-5a2,2,0,1,1,3.47,2l-2.89,5A2,2,0,0,1,285.77,268.71Z" fill="url(#linear-gradient)"/>
    <path id="Path_130" data-name="Path 130" d="M301.88,268.71a2,2,0,0,1-1.73-3l2.89-5a2,2,0,1,1,3.46,2l-2.89,5A2,2,0,0,1,301.88,268.71Z" fill="url(#linear-gradient-2)"/>
    <path id="Path_131" data-name="Path 131" d="M318,268.71a2,2,0,0,1-1.73-3l2.89-5a2,2,0,1,1,3.46,2l-2.88,5A2,2,0,0,1,318,268.71Z" fill="url(#linear-gradient-3)"/>
    <path id="Path_132" data-name="Path 132" d="M290.77,275.89a2,2,0,0,1-1.73-3l2.88-5a2,2,0,0,1,3.47,2l-2.89,5A2,2,0,0,1,290.77,275.89Z" fill="url(#linear-gradient)"/>
    <path id="Path_133" data-name="Path 133" d="M307.38,275.89a2,2,0,0,1-1.73-3l2.89-5a2,2,0,1,1,3.46,2l-2.89,5A2,2,0,0,1,307.38,275.89Z" fill="url(#linear-gradient-2)"/>
    <path id="Path_134" data-name="Path 134" d="M324,275.89a2,2,0,0,1-1.73-3l2.89-5a2,2,0,1,1,3.46,2l-2.88,5A2,2,0,0,1,324,275.89Z" fill="url(#linear-gradient-3)"/>
    <circle id="Ellipse_87" data-name="Ellipse 87" cx="12.96" cy="12.96" r="12.96" transform="translate(310.633 212.573)" fill="url(#linear-gradient-7)"/>
    <path id="Path_149" data-name="Path 149" d="M776.83,565.78a10.67,10.67,0,1,0,0-21.33h-.11a17,17,0,0,0-32.44-5.07H744a13.2,13.2,0,0,0,0,26.4" transform="translate(-455.557 -312.947)" fill="#fff"/>
    <path id="Path_150" data-name="Path 150" d="M791.05,565.78a6.7,6.7,0,1,0,0-13.39H791a10.69,10.69,0,0,0-20.37-3.18h-.16a8.29,8.29,0,1,0,0,16.58" transform="translate(-455.557 -312.947)" fill="url(#linear-gradient-8)"/>
  </g>
</svg>
