<svg xmlns="http://www.w3.org/2000/svg" xmlns:xlink="http://www.w3.org/1999/xlink" width="67.542" height="65.093" viewBox="0 0 67.542 65.093">
  <defs>
    <linearGradient id="linear-gradient" y1="0.5" x2="1" y2="0.5" gradientUnits="objectBoundingBox">
      <stop offset="0" stop-color="#d0e8f8"/>
      <stop offset="1" stop-color="#e1eef9"/>
    </linearGradient>
    <linearGradient id="linear-gradient-13" x1="0.213" y1="1.112" x2="0.776" y2="0.223" xlink:href="#linear-gradient"/>
  </defs>
  <g id="Snow" transform="translate(-1336.737 -679.477)">
    <circle id="Ellipse_13" data-name="Ellipse 13" cx="2" cy="2" r="2" transform="translate(1348.24 724.29)" fill="url(#linear-gradient)"/>
    <circle id="Ellipse_14" data-name="Ellipse 14" cx="2" cy="2" r="2" transform="translate(1358.24 724.29)" fill="url(#linear-gradient)"/>
    <circle id="Ellipse_15" data-name="Ellipse 15" cx="2" cy="2" r="2" transform="translate(1368.24 724.29)" fill="url(#linear-gradient)"/>
    <circle id="Ellipse_16" data-name="Ellipse 16" cx="2" cy="2" r="2" transform="translate(1378.24 724.29)" fill="url(#linear-gradient)"/>
    <circle id="Ellipse_17" data-name="Ellipse 17" cx="2" cy="2" r="2" transform="translate(1348.24 740.57)" fill="url(#linear-gradient)"/>
    <circle id="Ellipse_18" data-name="Ellipse 18" cx="2" cy="2" r="2" transform="translate(1358.24 740.57)" fill="url(#linear-gradient)"/>
    <circle id="Ellipse_19" data-name="Ellipse 19" cx="2" cy="2" r="2" transform="translate(1368.24 740.57)" fill="url(#linear-gradient)"/>
    <circle id="Ellipse_20" data-name="Ellipse 20" cx="2" cy="2" r="2" transform="translate(1378.24 740.57)" fill="url(#linear-gradient)"/>
    <circle id="Ellipse_21" data-name="Ellipse 21" cx="2" cy="2" r="2" transform="translate(1343.24 732.57)" fill="url(#linear-gradient)"/>
    <circle id="Ellipse_22" data-name="Ellipse 22" cx="2" cy="2" r="2" transform="translate(1353.24 732.57)" fill="url(#linear-gradient)"/>
    <circle id="Ellipse_23" data-name="Ellipse 23" cx="2" cy="2" r="2" transform="translate(1363.24 732.57)" fill="url(#linear-gradient)"/>
    <circle id="Ellipse_24" data-name="Ellipse 24" cx="2" cy="2" r="2" transform="translate(1373.24 732.57)" fill="url(#linear-gradient)"/>
    <path id="Path_9" data-name="Path 9" d="M1383.1,716a10.67,10.67,0,1,0,0-21.33h-.1a17,17,0,0,0-32.45-5.07h-.25a13.2,13.2,0,1,0,0,26.39" fill="#fff"/>
    <path id="Path_10" data-name="Path 10" d="M1397.32,716a6.7,6.7,0,1,0,0-13.39h-.07a10.69,10.69,0,0,0-20.37-3.18h-.16a8.29,8.29,0,1,0,0,16.57" fill="url(#linear-gradient-13)"/>
  </g>
</svg>
