<svg xmlns="http://www.w3.org/2000/svg" xmlns:xlink="http://www.w3.org/1999/xlink" width="51.018" height="31.864" viewBox="0 0 51.018 31.864">
  <defs>
    <linearGradient id="linear-gradient" x1="0.148" y1="0.85" x2="0.691" y2="0.307" gradientUnits="objectBoundingBox">
      <stop offset="0" stop-color="#00aeef"/>
      <stop offset="1" stop-color="#00bdf2"/>
    </linearGradient>
  </defs>
  <g id="Fog_Night" data-name="Fog Night" transform="translate(-921.234 -208.956)">
    <path id="Path_105" data-name="Path 105" d="M935.83,237.65a14.6,14.6,0,0,1-4-28.64.77.77,0,0,1,1,1A13.07,13.07,0,0,0,949,226.18a.76.76,0,0,1,.75.19.78.78,0,0,1,.2.75,14.67,14.67,0,0,1-14.12,10.53Z" fill="url(#linear-gradient)"/>
    <path id="Path_108" data-name="Path 108" d="M902.45,262.82h-10a1.5,1.5,0,0,1,0-3h10a1.5,1.5,0,1,1,0,3Z" transform="translate(36.751 -30)" fill="#fff"/>
    <path id="Path_109" data-name="Path 109" d="M924,262.82H909a1.5,1.5,0,0,1,0-3h15a1.5,1.5,0,0,1,0,3Z" transform="translate(36.751 -30)" fill="#fff"/>
    <path id="Path_110" data-name="Path 110" d="M912.45,270.82h-20a1.5,1.5,0,0,1,0-3h20a1.5,1.5,0,1,1,0,3Z" transform="translate(36.751 -30)" fill="#fff"/>
    <path id="Path_111" data-name="Path 111" d="M934,270.82H919a1.5,1.5,0,0,1,0-3h15a1.5,1.5,0,0,1,0,3Z" transform="translate(36.751 -30)" fill="#fff"/>
  </g>
</svg>
