<svg xmlns="http://www.w3.org/2000/svg" width="14" height="9" viewBox="0 0 14 9">
  <g id="europe" transform="translate(0 -88.276)">
    <path id="Path_82" data-name="Path 82" d="M13.759,97.276H.241A.239.239,0,0,1,0,97.039V88.513a.239.239,0,0,1,.241-.237H13.759a.239.239,0,0,1,.241.237v8.526A.239.239,0,0,1,13.759,97.276Z" fill="#41479b"/>
    <g id="Group_73" data-name="Group 73" transform="translate(3.587 89.263)">
      <path id="Path_83" data-name="Path 83" d="M241.008,125.683l.093.28.3,0a.04.04,0,0,1,.023.072l-.238.175.089.282a.04.04,0,0,1-.061.044l-.24-.172-.24.172a.04.04,0,0,1-.061-.044l.089-.282-.238-.175a.04.04,0,0,1,.023-.072l.3,0,.093-.28A.04.04,0,0,1,241.008,125.683Z" transform="translate(-237.496 -125.656)" fill="#ffe15a"/>
      <path id="Path_84" data-name="Path 84" d="M241.008,353.545l.093.28.3,0a.04.04,0,0,1,.023.072l-.238.175.089.282a.04.04,0,0,1-.061.044l-.24-.172-.24.172a.04.04,0,0,1-.061-.044l.089-.282-.238-.175a.04.04,0,0,1,.023-.072l.3,0,.093-.28A.04.04,0,0,1,241.008,353.545Z" transform="translate(-237.496 -347.358)" fill="#ffe15a"/>
      <path id="Path_85" data-name="Path 85" d="M354.939,239.614l.093.28.3,0a.04.04,0,0,1,.023.072l-.238.175.089.282a.04.04,0,0,1-.061.044l-.24-.172-.24.172a.04.04,0,0,1-.061-.044l.089-.282-.238-.175a.04.04,0,0,1,.023-.072l.3,0,.093-.28A.04.04,0,0,1,354.939,239.614Z" transform="translate(-348.419 -236.507)" fill="#ffe15a"/>
      <path id="Path_86" data-name="Path 86" d="M127.076,239.614l.093.28.3,0a.04.04,0,0,1,.023.072l-.238.175.089.282a.04.04,0,0,1-.061.044l-.24-.172-.24.172a.04.04,0,0,1-.061-.044l.089-.282-.238-.175a.04.04,0,0,1,.023-.072l.3,0,.093-.28A.04.04,0,0,1,127.076,239.614Z" transform="translate(-126.572 -236.507)" fill="#ffe15a"/>
      <path id="Path_87" data-name="Path 87" d="M144.18,180.118l.093.28.3,0a.04.04,0,0,1,.023.072l-.238.175.089.282a.04.04,0,0,1-.061.044l-.24-.172-.24.172a.04.04,0,0,1-.061-.044l.089-.282-.238-.175a.04.04,0,0,1,.023-.072l.3,0,.093-.28A.04.04,0,0,1,144.18,180.118Z" transform="translate(-143.225 -178.619)" fill="#ffe15a"/>
      <path id="Path_88" data-name="Path 88" d="M341.514,294.049l.093.28.3,0a.04.04,0,0,1,.023.072l-.238.175.089.282a.04.04,0,0,1-.061.044l-.24-.172-.24.172a.04.04,0,0,1-.061-.044l.089-.282-.238-.175a.04.04,0,0,1,.023-.072l.3,0,.093-.28A.04.04,0,0,1,341.514,294.049Z" transform="translate(-335.349 -289.47)" fill="#ffe15a"/>
      <path id="Path_89" data-name="Path 89" d="M299.813,138.416l.093.28.3,0a.04.04,0,0,1,.023.072l-.238.175.089.282a.04.04,0,0,1-.061.044l-.24-.172-.24.172a.04.04,0,0,1-.061-.044l.089-.282-.238-.175a.04.04,0,0,1,.023-.072l.3,0,.093-.28A.04.04,0,0,1,299.813,138.416Z" transform="translate(-294.749 -138.052)" fill="#ffe15a"/>
      <path id="Path_90" data-name="Path 90" d="M185.881,335.751l.093.28.3,0a.04.04,0,0,1,.023.072l-.238.175.089.282a.04.04,0,0,1-.061.044l-.24-.172-.24.172a.04.04,0,0,1-.061-.044l.089-.282-.238-.175a.04.04,0,0,1,.023-.072l.3,0,.093-.28A.04.04,0,0,1,185.881,335.751Z" transform="translate(-183.825 -330.034)" fill="#ffe15a"/>
      <path id="Path_91" data-name="Path 91" d="M341.439,180.118l-.093.28-.3,0a.04.04,0,0,0-.023.072l.238.175-.089.282a.04.04,0,0,0,.061.044l.24-.172.24.172a.04.04,0,0,0,.061-.044l-.089-.282.238-.175a.04.04,0,0,0-.023-.072l-.3,0-.093-.28A.04.04,0,0,0,341.439,180.118Z" transform="translate(-335.349 -178.619)" fill="#ffe15a"/>
      <path id="Path_92" data-name="Path 92" d="M144.1,294.049l-.093.28-.3,0a.04.04,0,0,0-.023.072l.238.175-.089.282a.04.04,0,0,0,.061.044l.24-.172.24.172a.04.04,0,0,0,.061-.044l-.089-.282.238-.175a.04.04,0,0,0-.023-.072l-.3,0-.093-.28A.04.04,0,0,0,144.1,294.049Z" transform="translate(-143.225 -289.47)" fill="#ffe15a"/>
      <path id="Path_93" data-name="Path 93" d="M185.806,138.416l-.093.28-.3,0a.04.04,0,0,0-.023.072l.238.175-.089.282a.04.04,0,0,0,.061.044l.24-.172.24.172a.04.04,0,0,0,.061-.044l-.089-.282.238-.175a.04.04,0,0,0-.023-.072l-.3,0-.093-.28A.04.04,0,0,0,185.806,138.416Z" transform="translate(-183.825 -138.052)" fill="#ffe15a"/>
      <path id="Path_94" data-name="Path 94" d="M299.737,335.751l-.093.28-.3,0a.04.04,0,0,0-.023.072l.238.175-.089.282a.04.04,0,0,0,.061.044l.24-.172.24.172a.04.04,0,0,0,.061-.044l-.089-.282.238-.175a.04.04,0,0,0-.023-.072l-.3,0-.093-.28A.04.04,0,0,0,299.737,335.751Z" transform="translate(-294.748 -330.034)" fill="#ffe15a"/>
    </g>
  </g>
</svg>
