<svg xmlns="http://www.w3.org/2000/svg" width="14" height="9" viewBox="0 0 14 9">
  <g id="united-states" transform="translate(0 -87.005)">
    <path id="Path_25" data-name="Path 25" d="M14,95.718a.292.292,0,0,1-.295.287H.295A.292.292,0,0,1,0,95.718V87.292A.292.292,0,0,1,.295,87H13.705a.292.292,0,0,1,.295.287Z" fill="#fff7ee"/>
    <g id="Group_69" data-name="Group 69" transform="translate(0 87.005)">
      <path id="Path_26" data-name="Path 26" d="M217.143,87.006h-7.771v.866h8.058v-.579A.288.288,0,0,0,217.143,87.006Z" transform="translate(-203.43 -87.006)" fill="#e02424"/>
      <path id="Path_27" data-name="Path 27" d="M197.545,209.2v.54a.325.325,0,0,1-.324.326H205.6V209.2h-8.058Z" transform="translate(-191.603 -205.944)" fill="#e02424"/>
      <rect id="Rectangle_23" data-name="Rectangle 23" width="14" height="0.866" transform="translate(0 4.881)" fill="#e02424"/>
    </g>
    <rect id="Rectangle_24" data-name="Rectangle 24" width="0.875" height="0.866" transform="translate(0 91.886)" opacity="0.1"/>
    <g id="Group_70" data-name="Group 70" transform="translate(0 88.632)">
      <rect id="Rectangle_25" data-name="Rectangle 25" width="14" height="0.866" transform="translate(0 4.881)" fill="#e02424"/>
      <path id="Path_28" data-name="Path 28" d="M14,393.066v-.579H0v.579a.292.292,0,0,0,.295.287H13.705A.292.292,0,0,0,14,393.066Z" transform="translate(0 -385.98)" fill="#e02424"/>
      <rect id="Rectangle_26" data-name="Rectangle 26" width="8.058" height="0.866" transform="translate(5.941 0)" fill="#e02424"/>
    </g>
    <path id="Path_29" data-name="Path 29" d="M.287,87.006A.288.288,0,0,0,0,87.293v3.832H5.558a.325.325,0,0,0,.324-.326V87.006Z" transform="translate(0 -0.001)" fill="#0853a4"/>
    <path id="Path_30" data-name="Path 30" d="M1.191,87.006h-.9A.288.288,0,0,0,0,87.293v3.832H.9V87.293A.288.288,0,0,1,1.191,87.006Z" transform="translate(0 -0.001)" opacity="0.1"/>
    <g id="Group_71" data-name="Group 71" transform="translate(0.512 87.396)">
      <path id="Path_31" data-name="Path 31" d="M36.9,115.785a.04.04,0,0,1-.019,0l-.078-.042-.078.042a.04.04,0,0,1-.019,0,.04.04,0,0,1-.024-.008.042.042,0,0,1-.016-.041l.015-.089-.063-.063a.043.043,0,0,1-.01-.043.041.041,0,0,1,.033-.029l.087-.013.039-.081a.041.041,0,0,1,.074,0l.039.081.087.013a.041.041,0,0,1,.033.029.043.043,0,0,1-.01.043l-.063.063.015.089a.042.042,0,0,1-.016.041A.041.041,0,0,1,36.9,115.785Z" transform="translate(-36.137 -115.029)" fill="#fff"/>
      <path id="Path_32" data-name="Path 32" d="M36.9,143.206a.04.04,0,0,1-.019,0l-.078-.042-.078.042a.039.039,0,0,1-.019,0,.04.04,0,0,1-.024-.008.043.043,0,0,1-.016-.041l.015-.089L36.612,143a.043.043,0,0,1-.01-.043.042.042,0,0,1,.033-.029l.087-.013.039-.081a.041.041,0,0,1,.074,0l.039.081.087.013a.042.042,0,0,1,.033.029.043.043,0,0,1-.01.043l-.063.063.015.089a.043.043,0,0,1-.016.041A.04.04,0,0,1,36.9,143.206Z" transform="translate(-36.137 -141.72)" fill="#fff"/>
      <path id="Path_33" data-name="Path 33" d="M36.9,170.628a.04.04,0,0,1-.019,0l-.078-.042-.078.042a.04.04,0,0,1-.019,0,.041.041,0,0,1-.024-.008.042.042,0,0,1-.016-.041l.015-.089-.063-.063a.043.043,0,0,1-.01-.043.041.041,0,0,1,.033-.029l.087-.013.039-.081a.041.041,0,0,1,.074,0l.039.081.087.013a.042.042,0,0,1,.033.029.043.043,0,0,1-.01.043l-.063.063.015.089a.042.042,0,0,1-.016.041A.04.04,0,0,1,36.9,170.628Z" transform="translate(-36.137 -168.412)" fill="#fff"/>
      <path id="Path_34" data-name="Path 34" d="M36.9,198.046a.04.04,0,0,1-.019,0L36.8,198l-.078.042a.04.04,0,0,1-.019,0,.04.04,0,0,1-.024-.008A.043.043,0,0,1,36.66,198l.015-.089-.063-.063a.043.043,0,0,1-.01-.043.041.041,0,0,1,.033-.029l.087-.013.039-.081a.041.041,0,0,1,.074,0l.039.081.087.013a.042.042,0,0,1,.033.029.043.043,0,0,1-.01.043l-.063.063.015.089a.043.043,0,0,1-.016.041A.04.04,0,0,1,36.9,198.046Z" transform="translate(-36.137 -195.099)" fill="#fff"/>
      <path id="Path_35" data-name="Path 35" d="M19.526,102.074a.04.04,0,0,1-.019,0l-.078-.042-.078.042a.04.04,0,0,1-.019,0,.04.04,0,0,1-.024-.008.042.042,0,0,1-.016-.041l.015-.089-.063-.063a.043.043,0,0,1-.01-.043.041.041,0,0,1,.033-.029l.087-.013.039-.081a.041.041,0,0,1,.074,0l.039.081.087.013a.041.041,0,0,1,.033.029.043.043,0,0,1-.01.043l-.063.063.015.089a.043.043,0,0,1-.016.041A.04.04,0,0,1,19.526,102.074Z" transform="translate(-19.23 -101.683)" fill="#fff"/>
      <path id="Path_36" data-name="Path 36" d="M19.526,129.5a.041.041,0,0,1-.019,0l-.078-.042-.078.042a.04.04,0,0,1-.043,0,.042.042,0,0,1-.016-.041l.015-.089-.063-.063a.043.043,0,0,1-.01-.043.041.041,0,0,1,.033-.029l.087-.013.039-.081a.041.041,0,0,1,.074,0l.039.081.087.013a.041.041,0,0,1,.033.029.043.043,0,0,1-.01.043l-.063.063.015.089a.043.043,0,0,1-.016.041A.041.041,0,0,1,19.526,129.5Z" transform="translate(-19.23 -128.374)" fill="#fff"/>
      <path id="Path_37" data-name="Path 37" d="M19.526,156.916a.041.041,0,0,1-.019,0l-.078-.042-.078.042a.041.041,0,0,1-.043,0,.042.042,0,0,1-.016-.041l.015-.089-.063-.063a.043.043,0,0,1-.01-.043.041.041,0,0,1,.033-.029l.087-.013.039-.081a.041.041,0,0,1,.074,0l.039.081.087.013a.041.041,0,0,1,.033.029.043.043,0,0,1-.01.043l-.063.063.015.089a.043.043,0,0,1-.016.041A.041.041,0,0,1,19.526,156.916Z" transform="translate(-19.23 -155.065)" fill="#fff"/>
      <path id="Path_38" data-name="Path 38" d="M19.526,184.335a.04.04,0,0,1-.019,0l-.078-.042-.078.042a.04.04,0,0,1-.043,0,.042.042,0,0,1-.016-.041l.015-.089-.063-.063a.043.043,0,0,1-.01-.043.041.041,0,0,1,.033-.029l.087-.013.039-.081a.041.041,0,0,1,.074,0l.039.081.087.013a.041.041,0,0,1,.033.029.043.043,0,0,1-.01.043l-.063.063.015.089a.043.043,0,0,1-.016.041A.04.04,0,0,1,19.526,184.335Z" transform="translate(-19.23 -181.754)" fill="#fff"/>
      <path id="Path_39" data-name="Path 39" d="M19.526,211.756a.04.04,0,0,1-.019,0l-.078-.042-.078.042a.04.04,0,0,1-.043,0,.042.042,0,0,1-.016-.041l.015-.089-.063-.063a.043.043,0,0,1-.01-.043.041.041,0,0,1,.033-.029l.087-.013.039-.081a.041.041,0,0,1,.074,0l.039.081.087.013a.041.041,0,0,1,.033.029.043.043,0,0,1-.01.043l-.063.063.015.089a.042.042,0,0,1-.016.041A.04.04,0,0,1,19.526,211.756Z" transform="translate(-19.23 -208.444)" fill="#fff"/>
      <path id="Path_40" data-name="Path 40" d="M70.61,115.785a.04.04,0,0,1-.019,0l-.078-.042-.078.042a.04.04,0,0,1-.019,0,.04.04,0,0,1-.024-.008.042.042,0,0,1-.016-.041l.015-.089-.063-.063a.043.043,0,0,1-.01-.043.041.041,0,0,1,.033-.029l.088-.013.039-.081a.041.041,0,0,1,.074,0l.039.081.087.013a.041.041,0,0,1,.033.029.043.043,0,0,1-.01.043l-.063.063.015.089a.043.043,0,0,1-.016.041A.04.04,0,0,1,70.61,115.785Z" transform="translate(-68.954 -115.029)" fill="#fff"/>
      <path id="Path_41" data-name="Path 41" d="M70.61,143.206a.039.039,0,0,1-.019,0l-.078-.042-.078.042a.039.039,0,0,1-.019,0,.04.04,0,0,1-.024-.008.042.042,0,0,1-.016-.041l.015-.089L70.327,143a.043.043,0,0,1-.01-.043.042.042,0,0,1,.033-.029l.088-.013.039-.081a.041.041,0,0,1,.074,0l.039.081.087.013a.042.042,0,0,1,.033.029.043.043,0,0,1-.01.043l-.063.063.015.089a.043.043,0,0,1-.016.041A.04.04,0,0,1,70.61,143.206Z" transform="translate(-68.954 -141.72)" fill="#fff"/>
      <path id="Path_42" data-name="Path 42" d="M70.61,170.628a.04.04,0,0,1-.019,0l-.078-.042-.078.042a.04.04,0,0,1-.019,0,.041.041,0,0,1-.024-.008.042.042,0,0,1-.016-.041l.015-.089-.063-.063a.043.043,0,0,1-.01-.043.041.041,0,0,1,.033-.029l.088-.013.039-.081a.041.041,0,0,1,.074,0l.039.081.087.013a.042.042,0,0,1,.033.029.043.043,0,0,1-.01.043l-.063.063.015.089a.043.043,0,0,1-.016.041A.04.04,0,0,1,70.61,170.628Z" transform="translate(-68.954 -168.412)" fill="#fff"/>
      <path id="Path_43" data-name="Path 43" d="M70.61,198.046a.04.04,0,0,1-.019,0L70.513,198l-.078.042a.04.04,0,0,1-.043,0,.042.042,0,0,1-.016-.041l.015-.089-.063-.063a.043.043,0,0,1-.01-.043.041.041,0,0,1,.033-.029l.088-.013.039-.081a.041.041,0,0,1,.074,0l.039.081.087.013a.042.042,0,0,1,.033.029.043.043,0,0,1-.01.043l-.063.063.015.089a.043.043,0,0,1-.016.041A.04.04,0,0,1,70.61,198.046Z" transform="translate(-68.954 -195.099)" fill="#fff"/>
      <path id="Path_44" data-name="Path 44" d="M53.243,102.074a.039.039,0,0,1-.019,0l-.078-.042-.078.042a.04.04,0,0,1-.019,0,.04.04,0,0,1-.024-.008.042.042,0,0,1-.016-.041l.015-.089-.063-.063a.043.043,0,0,1-.01-.043.041.041,0,0,1,.033-.029l.087-.013.039-.081a.041.041,0,0,1,.074,0l.039.081.087.013a.041.041,0,0,1,.033.029.043.043,0,0,1-.01.043l-.063.063.015.089a.043.043,0,0,1-.016.041A.041.041,0,0,1,53.243,102.074Z" transform="translate(-52.049 -101.683)" fill="#fff"/>
      <path id="Path_45" data-name="Path 45" d="M53.243,129.5a.041.041,0,0,1-.019,0l-.078-.042-.078.042a.04.04,0,0,1-.043,0,.043.043,0,0,1-.016-.041l.015-.089-.063-.063a.043.043,0,0,1-.01-.043.041.041,0,0,1,.033-.029l.087-.013.039-.081a.041.041,0,0,1,.074,0l.039.081.087.013a.041.041,0,0,1,.033.029.043.043,0,0,1-.01.043l-.063.063.015.089a.043.043,0,0,1-.016.041A.041.041,0,0,1,53.243,129.5Z" transform="translate(-52.049 -128.374)" fill="#fff"/>
      <path id="Path_46" data-name="Path 46" d="M53.243,156.916a.04.04,0,0,1-.019,0l-.078-.042-.078.042a.041.041,0,0,1-.043,0,.043.043,0,0,1-.016-.041l.015-.089-.063-.063a.043.043,0,0,1-.01-.043.041.041,0,0,1,.033-.029l.087-.013.039-.081a.041.041,0,0,1,.074,0l.039.081.087.013a.041.041,0,0,1,.033.029.043.043,0,0,1-.01.043l-.063.063.015.089a.043.043,0,0,1-.016.041A.041.041,0,0,1,53.243,156.916Z" transform="translate(-52.049 -155.065)" fill="#fff"/>
      <path id="Path_47" data-name="Path 47" d="M53.243,184.335a.04.04,0,0,1-.019,0l-.078-.042-.078.042a.04.04,0,0,1-.043,0,.042.042,0,0,1-.016-.041l.015-.089-.063-.063a.043.043,0,0,1-.01-.043.041.041,0,0,1,.033-.029l.087-.013.039-.081a.041.041,0,0,1,.074,0l.039.081.087.013a.041.041,0,0,1,.033.029.043.043,0,0,1-.01.043l-.063.063.015.089a.043.043,0,0,1-.016.041A.04.04,0,0,1,53.243,184.335Z" transform="translate(-52.049 -181.754)" fill="#fff"/>
      <path id="Path_48" data-name="Path 48" d="M53.243,211.756a.04.04,0,0,1-.019,0l-.078-.042-.078.042a.04.04,0,0,1-.043,0,.042.042,0,0,1-.016-.041l.015-.089-.063-.063a.043.043,0,0,1-.01-.043.041.041,0,0,1,.033-.029l.087-.013.039-.081a.041.041,0,0,1,.074,0l.039.081.087.013a.041.041,0,0,1,.033.029.043.043,0,0,1-.01.043l-.063.063.015.089a.042.042,0,0,1-.016.041A.04.04,0,0,1,53.243,211.756Z" transform="translate(-52.049 -208.444)" fill="#fff"/>
      <path id="Path_49" data-name="Path 49" d="M104.326,115.785a.04.04,0,0,1-.019,0l-.078-.042-.078.042a.04.04,0,0,1-.019,0,.04.04,0,0,1-.024-.008.042.042,0,0,1-.016-.041l.015-.089-.063-.063a.043.043,0,0,1-.01-.043.041.041,0,0,1,.033-.029l.087-.013.039-.081a.041.041,0,0,1,.074,0l.039.081.088.013a.041.041,0,0,1,.033.029.043.043,0,0,1-.01.043l-.063.063.015.089a.043.043,0,0,1-.016.041A.041.041,0,0,1,104.326,115.785Z" transform="translate(-101.772 -115.029)" fill="#fff"/>
      <path id="Path_50" data-name="Path 50" d="M104.326,143.206a.04.04,0,0,1-.019,0l-.078-.042-.078.042a.04.04,0,0,1-.019,0,.04.04,0,0,1-.024-.008.042.042,0,0,1-.016-.041l.015-.089-.063-.063a.043.043,0,0,1-.01-.043.041.041,0,0,1,.033-.029l.087-.013.039-.081a.041.041,0,0,1,.074,0l.039.081.088.013a.042.042,0,0,1,.033.029.043.043,0,0,1-.01.043l-.063.063.015.089a.043.043,0,0,1-.016.041A.04.04,0,0,1,104.326,143.206Z" transform="translate(-101.772 -141.72)" fill="#fff"/>
      <path id="Path_51" data-name="Path 51" d="M104.326,170.628a.04.04,0,0,1-.019,0l-.078-.042-.078.042a.04.04,0,0,1-.043,0,.042.042,0,0,1-.016-.041l.015-.089-.063-.063a.043.043,0,0,1-.01-.043.041.041,0,0,1,.033-.029l.087-.013.039-.081a.041.041,0,0,1,.074,0l.039.081.088.013a.041.041,0,0,1,.033.029.043.043,0,0,1-.01.043l-.063.063.015.089a.043.043,0,0,1-.016.041A.04.04,0,0,1,104.326,170.628Z" transform="translate(-101.772 -168.412)" fill="#fff"/>
      <path id="Path_52" data-name="Path 52" d="M104.326,198.046a.04.04,0,0,1-.019,0l-.078-.042-.078.042a.04.04,0,0,1-.043,0,.042.042,0,0,1-.016-.041l.015-.089-.063-.063a.043.043,0,0,1-.01-.043.041.041,0,0,1,.033-.029l.087-.013.039-.081a.041.041,0,0,1,.074,0l.039.081.088.013a.042.042,0,0,1,.033.029.043.043,0,0,1-.01.043l-.063.063.015.089a.043.043,0,0,1-.016.041A.04.04,0,0,1,104.326,198.046Z" transform="translate(-101.772 -195.099)" fill="#fff"/>
      <path id="Path_53" data-name="Path 53" d="M86.957,102.074a.039.039,0,0,1-.019,0l-.078-.042-.078.042a.04.04,0,0,1-.019,0,.04.04,0,0,1-.024-.008.042.042,0,0,1-.016-.041l.015-.089-.063-.063a.043.043,0,0,1-.01-.043.041.041,0,0,1,.033-.029l.088-.013.039-.081a.041.041,0,0,1,.074,0l.039.081.087.013a.041.041,0,0,1,.033.029.043.043,0,0,1-.01.043l-.063.063.015.089a.043.043,0,0,1-.016.041A.04.04,0,0,1,86.957,102.074Z" transform="translate(-84.866 -101.683)" fill="#fff"/>
      <path id="Path_54" data-name="Path 54" d="M86.957,129.5a.041.041,0,0,1-.019,0l-.078-.042-.078.042a.04.04,0,0,1-.019,0,.041.041,0,0,1-.024-.008.043.043,0,0,1-.016-.041l.015-.089-.063-.063a.043.043,0,0,1-.01-.043.041.041,0,0,1,.033-.029l.088-.013.039-.081a.041.041,0,0,1,.074,0l.039.081.087.013a.041.041,0,0,1,.033.029.043.043,0,0,1-.01.043l-.063.063.015.089a.043.043,0,0,1-.016.041A.04.04,0,0,1,86.957,129.5Z" transform="translate(-84.866 -128.374)" fill="#fff"/>
      <path id="Path_55" data-name="Path 55" d="M86.957,156.916a.04.04,0,0,1-.019,0l-.078-.042-.078.042a.04.04,0,0,1-.019,0,.041.041,0,0,1-.024-.008.042.042,0,0,1-.016-.041l.015-.089-.063-.063a.043.043,0,0,1-.01-.043.041.041,0,0,1,.033-.029l.088-.013.039-.081a.041.041,0,0,1,.074,0l.039.081.087.013a.041.041,0,0,1,.033.029.043.043,0,0,1-.01.043l-.063.063.015.089a.043.043,0,0,1-.016.041A.04.04,0,0,1,86.957,156.916Z" transform="translate(-84.866 -155.065)" fill="#fff"/>
      <path id="Path_56" data-name="Path 56" d="M86.957,184.335a.04.04,0,0,1-.019,0l-.078-.042-.078.042a.04.04,0,0,1-.019,0,.04.04,0,0,1-.024-.008.042.042,0,0,1-.016-.041l.015-.089-.063-.063a.043.043,0,0,1-.01-.043.041.041,0,0,1,.033-.029l.088-.013.039-.081a.041.041,0,0,1,.074,0l.039.081.087.013a.041.041,0,0,1,.033.029.043.043,0,0,1-.01.043l-.063.063.015.089a.043.043,0,0,1-.016.041A.04.04,0,0,1,86.957,184.335Z" transform="translate(-84.866 -181.754)" fill="#fff"/>
      <path id="Path_57" data-name="Path 57" d="M86.957,211.756a.04.04,0,0,1-.019,0l-.078-.042-.078.042a.04.04,0,0,1-.043,0,.042.042,0,0,1-.016-.041l.015-.089-.063-.063a.043.043,0,0,1-.01-.043.041.041,0,0,1,.033-.029l.088-.013.039-.081a.041.041,0,0,1,.074,0l.039.081.087.013a.041.041,0,0,1,.033.029.043.043,0,0,1-.01.043l-.063.063.015.089a.042.042,0,0,1-.016.041A.04.04,0,0,1,86.957,211.756Z" transform="translate(-84.866 -208.444)" fill="#fff"/>
      <path id="Path_58" data-name="Path 58" d="M138.04,115.785a.04.04,0,0,1-.019,0l-.078-.042-.078.042a.04.04,0,0,1-.019,0,.04.04,0,0,1-.024-.008.042.042,0,0,1-.016-.041l.015-.089-.063-.063a.043.043,0,0,1-.01-.043.041.041,0,0,1,.033-.029l.087-.013.039-.081a.041.041,0,0,1,.074,0l.039.081.087.013a.041.041,0,0,1,.033.029.043.043,0,0,1-.01.043l-.063.063.015.089a.042.042,0,0,1-.016.041A.04.04,0,0,1,138.04,115.785Z" transform="translate(-134.588 -115.029)" fill="#fff"/>
      <path id="Path_59" data-name="Path 59" d="M138.04,143.206a.04.04,0,0,1-.019,0l-.078-.042-.078.042a.04.04,0,0,1-.019,0,.04.04,0,0,1-.024-.008.042.042,0,0,1-.016-.041l.015-.089-.063-.063a.043.043,0,0,1-.01-.043.041.041,0,0,1,.033-.029l.087-.013.039-.081a.041.041,0,0,1,.074,0l.039.081.087.013a.041.041,0,0,1,.033.029.043.043,0,0,1-.01.043l-.063.063.015.089a.043.043,0,0,1-.016.041A.04.04,0,0,1,138.04,143.206Z" transform="translate(-134.588 -141.72)" fill="#fff"/>
      <path id="Path_60" data-name="Path 60" d="M138.04,170.628a.04.04,0,0,1-.019,0l-.078-.042-.078.042a.041.041,0,0,1-.043,0,.042.042,0,0,1-.016-.041l.015-.089-.063-.063a.043.043,0,0,1-.01-.043.041.041,0,0,1,.033-.029l.087-.013.039-.081a.041.041,0,0,1,.074,0l.039.081.087.013a.041.041,0,0,1,.033.029.043.043,0,0,1-.01.043l-.063.063.015.089a.043.043,0,0,1-.016.041A.04.04,0,0,1,138.04,170.628Z" transform="translate(-134.588 -168.412)" fill="#fff"/>
      <path id="Path_61" data-name="Path 61" d="M138.04,198.046a.04.04,0,0,1-.019,0l-.078-.042-.078.042a.04.04,0,0,1-.043,0A.042.042,0,0,1,137.8,198l.015-.089-.063-.063a.043.043,0,0,1-.01-.043.041.041,0,0,1,.033-.029l.087-.013.039-.081a.041.041,0,0,1,.074,0l.039.081.087.013a.041.041,0,0,1,.033.029.043.043,0,0,1-.01.043l-.063.063.015.089a.043.043,0,0,1-.016.041A.04.04,0,0,1,138.04,198.046Z" transform="translate(-134.588 -195.099)" fill="#fff"/>
      <path id="Path_62" data-name="Path 62" d="M120.672,102.074a.04.04,0,0,1-.019,0l-.078-.042-.078.042a.04.04,0,0,1-.019,0,.041.041,0,0,1-.024-.008.042.042,0,0,1-.016-.041l.015-.089-.063-.063a.043.043,0,0,1-.01-.043.041.041,0,0,1,.033-.029l.088-.013.039-.081a.041.041,0,0,1,.074,0l.039.081.087.013a.041.041,0,0,1,.033.029.043.043,0,0,1-.01.043l-.063.063.015.089a.043.043,0,0,1-.016.041A.04.04,0,0,1,120.672,102.074Z" transform="translate(-117.683 -101.683)" fill="#fff"/>
      <path id="Path_63" data-name="Path 63" d="M120.672,129.5a.041.041,0,0,1-.019,0l-.078-.042-.078.042a.04.04,0,0,1-.019,0,.041.041,0,0,1-.024-.008.043.043,0,0,1-.016-.041l.015-.089-.063-.063a.043.043,0,0,1-.01-.043.041.041,0,0,1,.033-.029l.088-.013.039-.081a.041.041,0,0,1,.074,0l.039.081.087.013a.041.041,0,0,1,.033.029.043.043,0,0,1-.01.043l-.063.063.015.089a.043.043,0,0,1-.016.041A.04.04,0,0,1,120.672,129.5Z" transform="translate(-117.683 -128.374)" fill="#fff"/>
      <path id="Path_64" data-name="Path 64" d="M120.672,156.916a.041.041,0,0,1-.019,0l-.078-.042-.078.042a.04.04,0,0,1-.019,0,.041.041,0,0,1-.024-.008.042.042,0,0,1-.016-.041l.015-.089-.063-.063a.043.043,0,0,1-.01-.043.041.041,0,0,1,.033-.029l.088-.013.039-.081a.041.041,0,0,1,.074,0l.039.081.087.013a.041.041,0,0,1,.033.029.043.043,0,0,1-.01.043l-.063.063.015.089a.043.043,0,0,1-.016.041A.041.041,0,0,1,120.672,156.916Z" transform="translate(-117.683 -155.065)" fill="#fff"/>
      <path id="Path_65" data-name="Path 65" d="M120.672,184.335a.04.04,0,0,1-.019,0l-.078-.042-.078.042a.04.04,0,0,1-.019,0,.04.04,0,0,1-.024-.008.042.042,0,0,1-.016-.041l.015-.089-.063-.063a.043.043,0,0,1-.01-.043.041.041,0,0,1,.033-.029l.088-.013.039-.081a.041.041,0,0,1,.074,0l.039.081.087.013a.041.041,0,0,1,.033.029.043.043,0,0,1-.01.043l-.063.063.015.089a.043.043,0,0,1-.016.041A.04.04,0,0,1,120.672,184.335Z" transform="translate(-117.683 -181.754)" fill="#fff"/>
      <path id="Path_66" data-name="Path 66" d="M120.672,211.756a.04.04,0,0,1-.019,0l-.078-.042-.078.042a.04.04,0,0,1-.043,0,.042.042,0,0,1-.016-.041l.015-.089-.063-.063a.043.043,0,0,1-.01-.043.041.041,0,0,1,.033-.029l.088-.013.039-.081a.041.041,0,0,1,.074,0l.039.081.087.013a.041.041,0,0,1,.033.029.043.043,0,0,1-.01.043l-.063.063.015.089a.042.042,0,0,1-.016.041A.04.04,0,0,1,120.672,211.756Z" transform="translate(-117.683 -208.444)" fill="#fff"/>
      <path id="Path_67" data-name="Path 67" d="M171.756,115.785a.04.04,0,0,1-.019,0l-.078-.042-.078.042a.04.04,0,0,1-.043,0,.042.042,0,0,1-.016-.041l.015-.089-.063-.063a.043.043,0,0,1-.01-.043.041.041,0,0,1,.033-.029l.087-.013.039-.081a.041.041,0,0,1,.074,0l.039.081.087.013a.041.041,0,0,1,.033.029.043.043,0,0,1-.01.043l-.063.063.015.089a.043.043,0,0,1-.016.041A.04.04,0,0,1,171.756,115.785Z" transform="translate(-167.407 -115.029)" fill="#fff"/>
      <path id="Path_68" data-name="Path 68" d="M171.756,143.206a.04.04,0,0,1-.019,0l-.078-.042-.078.042a.039.039,0,0,1-.019,0,.04.04,0,0,1-.024-.008.042.042,0,0,1-.016-.041l.015-.089-.063-.063a.043.043,0,0,1-.01-.043.042.042,0,0,1,.033-.029l.087-.013.039-.081a.041.041,0,0,1,.074,0l.039.081.087.013a.041.041,0,0,1,.033.029.043.043,0,0,1-.01.043l-.063.063.015.089a.043.043,0,0,1-.016.041A.04.04,0,0,1,171.756,143.206Z" transform="translate(-167.407 -141.72)" fill="#fff"/>
      <path id="Path_69" data-name="Path 69" d="M171.756,170.628a.04.04,0,0,1-.019,0l-.078-.042-.078.042a.04.04,0,0,1-.043,0,.042.042,0,0,1-.016-.041l.015-.089-.063-.063a.043.043,0,0,1-.01-.043.041.041,0,0,1,.033-.029l.087-.013.039-.081a.041.041,0,0,1,.074,0l.039.081.087.013a.041.041,0,0,1,.033.029.043.043,0,0,1-.01.043l-.063.063.015.089a.043.043,0,0,1-.016.041A.04.04,0,0,1,171.756,170.628Z" transform="translate(-167.407 -168.412)" fill="#fff"/>
      <path id="Path_70" data-name="Path 70" d="M171.756,198.046a.04.04,0,0,1-.019,0l-.078-.042-.078.042a.04.04,0,0,1-.043,0,.042.042,0,0,1-.016-.041l.015-.089-.063-.063a.043.043,0,0,1-.01-.043.041.041,0,0,1,.033-.029l.087-.013.039-.081a.041.041,0,0,1,.074,0l.039.081.087.013a.041.041,0,0,1,.033.029.043.043,0,0,1-.01.043l-.063.063.015.089a.043.043,0,0,1-.016.041A.04.04,0,0,1,171.756,198.046Z" transform="translate(-167.407 -195.099)" fill="#fff"/>
      <path id="Path_71" data-name="Path 71" d="M154.389,102.074a.039.039,0,0,1-.019,0l-.078-.042-.078.042a.04.04,0,0,1-.019,0,.04.04,0,0,1-.024-.008.043.043,0,0,1-.016-.041l.015-.089-.063-.063a.043.043,0,0,1-.01-.043.041.041,0,0,1,.033-.029l.087-.013.039-.081a.041.041,0,0,1,.074,0l.039.081.087.013a.041.041,0,0,1,.033.029.043.043,0,0,1-.01.043l-.063.063.015.089a.043.043,0,0,1-.016.041A.041.041,0,0,1,154.389,102.074Z" transform="translate(-150.502 -101.683)" fill="#fff"/>
      <path id="Path_72" data-name="Path 72" d="M154.389,129.5a.041.041,0,0,1-.019,0l-.078-.042-.078.042a.04.04,0,0,1-.019,0,.041.041,0,0,1-.024-.008.043.043,0,0,1-.016-.041l.015-.089-.063-.063a.043.043,0,0,1-.01-.043.041.041,0,0,1,.033-.029l.087-.013.039-.081a.041.041,0,0,1,.074,0l.039.081.087.013a.041.041,0,0,1,.033.029.043.043,0,0,1-.01.043l-.063.063.015.089a.043.043,0,0,1-.016.041A.041.041,0,0,1,154.389,129.5Z" transform="translate(-150.502 -128.374)" fill="#fff"/>
      <path id="Path_73" data-name="Path 73" d="M154.389,156.916a.04.04,0,0,1-.019,0l-.078-.042-.078.042a.04.04,0,0,1-.019,0,.041.041,0,0,1-.024-.008.043.043,0,0,1-.016-.041l.015-.089-.063-.063a.043.043,0,0,1-.01-.043.041.041,0,0,1,.033-.029l.087-.013.039-.081a.041.041,0,0,1,.074,0l.039.081.087.013a.041.041,0,0,1,.033.029.043.043,0,0,1-.01.043l-.063.063.015.089a.043.043,0,0,1-.016.041A.041.041,0,0,1,154.389,156.916Z" transform="translate(-150.502 -155.065)" fill="#fff"/>
      <path id="Path_74" data-name="Path 74" d="M154.389,184.335a.039.039,0,0,1-.019,0l-.078-.042-.078.042a.04.04,0,0,1-.019,0,.04.04,0,0,1-.024-.008.043.043,0,0,1-.016-.041l.015-.089-.063-.063a.043.043,0,0,1-.01-.043.041.041,0,0,1,.033-.029l.087-.013.039-.081a.041.041,0,0,1,.074,0l.039.081.087.013a.041.041,0,0,1,.033.029.043.043,0,0,1-.01.043l-.063.063.015.089a.043.043,0,0,1-.016.041A.04.04,0,0,1,154.389,184.335Z" transform="translate(-150.502 -181.754)" fill="#fff"/>
      <path id="Path_75" data-name="Path 75" d="M154.389,211.756a.04.04,0,0,1-.019,0l-.078-.042-.078.042a.04.04,0,0,1-.043,0,.042.042,0,0,1-.016-.041l.015-.089-.063-.063a.043.043,0,0,1-.01-.043.041.041,0,0,1,.033-.029l.087-.013.039-.081a.041.041,0,0,1,.074,0l.039.081.087.013a.041.041,0,0,1,.033.029.043.043,0,0,1-.01.043l-.063.063.015.089a.043.043,0,0,1-.016.041A.04.04,0,0,1,154.389,211.756Z" transform="translate(-150.502 -208.444)" fill="#fff"/>
      <path id="Path_76" data-name="Path 76" d="M188.1,102.074a.039.039,0,0,1-.019,0l-.078-.042-.078.042a.04.04,0,0,1-.019,0,.041.041,0,0,1-.024-.008.042.042,0,0,1-.016-.041l.015-.089-.063-.063a.043.043,0,0,1-.01-.043.041.041,0,0,1,.033-.029l.087-.013.039-.081a.041.041,0,0,1,.074,0l.039.081.087.013a.041.041,0,0,1,.033.029.043.043,0,0,1-.01.043l-.063.063.015.089a.043.043,0,0,1-.016.041A.04.04,0,0,1,188.1,102.074Z" transform="translate(-183.318 -101.683)" fill="#fff"/>
      <path id="Path_77" data-name="Path 77" d="M188.1,129.5a.041.041,0,0,1-.019,0l-.078-.042-.078.042a.04.04,0,0,1-.043,0,.043.043,0,0,1-.016-.041l.015-.089-.063-.063a.043.043,0,0,1-.01-.043.041.041,0,0,1,.033-.029l.087-.013.039-.081a.041.041,0,0,1,.074,0l.039.081.087.013a.041.041,0,0,1,.033.029.043.043,0,0,1-.01.043l-.063.063.015.089a.043.043,0,0,1-.016.041A.04.04,0,0,1,188.1,129.5Z" transform="translate(-183.318 -128.374)" fill="#fff"/>
      <path id="Path_78" data-name="Path 78" d="M188.1,156.916a.04.04,0,0,1-.019,0l-.078-.042-.078.042a.041.041,0,0,1-.043,0,.043.043,0,0,1-.016-.041l.015-.089-.063-.063a.043.043,0,0,1-.01-.043.041.041,0,0,1,.033-.029l.087-.013.039-.081a.041.041,0,0,1,.074,0l.039.081.087.013a.041.041,0,0,1,.033.029.043.043,0,0,1-.01.043l-.063.063.015.089a.043.043,0,0,1-.016.041A.04.04,0,0,1,188.1,156.916Z" transform="translate(-183.318 -155.065)" fill="#fff"/>
      <path id="Path_79" data-name="Path 79" d="M188.1,184.335a.04.04,0,0,1-.019,0l-.078-.042-.078.042a.04.04,0,0,1-.043,0,.042.042,0,0,1-.016-.041l.015-.089-.063-.063a.043.043,0,0,1-.01-.043.041.041,0,0,1,.033-.029l.087-.013.039-.081a.041.041,0,0,1,.074,0l.039.081.087.013a.041.041,0,0,1,.033.029.043.043,0,0,1-.01.043l-.063.063.015.089a.043.043,0,0,1-.016.041A.04.04,0,0,1,188.1,184.335Z" transform="translate(-183.318 -181.754)" fill="#fff"/>
      <path id="Path_80" data-name="Path 80" d="M188.1,211.756a.04.04,0,0,1-.019,0l-.078-.042-.078.042a.04.04,0,0,1-.043,0,.042.042,0,0,1-.016-.041l.015-.089-.063-.063a.043.043,0,0,1-.01-.043.041.041,0,0,1,.033-.029l.087-.013.039-.081a.041.041,0,0,1,.074,0l.039.081.087.013a.041.041,0,0,1,.033.029.043.043,0,0,1-.01.043l-.063.063.015.089a.043.043,0,0,1-.016.041A.04.04,0,0,1,188.1,211.756Z" transform="translate(-183.318 -208.444)" fill="#fff"/>
    </g>
    <rect id="Rectangle_27" data-name="Rectangle 27" width="0.875" height="0.866" transform="translate(0 93.512)" opacity="0.1"/>
    <path id="Path_81" data-name="Path 81" d="M.875,393.066v-.579H0v.579a.288.288,0,0,0,.287.287h.875A.288.288,0,0,1,.875,393.066Z" transform="translate(0 -297.348)" opacity="0.1"/>
  </g>
</svg>
